<svg width="8" height="8" viewBox="0 0 8 8" fill="currentColor" xmlns="http://www.w3.org/2000/svg" id="chevron-down">
<path fill-rule="evenodd" clip-rule="evenodd" d="M0.822959 2.32299C0.846181 2.29971 0.873769 2.28124 0.904142 2.26863C0.934514 2.25603 0.967075 2.24954 0.999959 2.24954C1.03284 2.24954 1.0654 2.25603 1.09578 2.26863C1.12615 2.28124 1.15374 2.29971 1.17696 2.32299L3.99996 5.14649L6.82296 2.32299C6.8462 2.29975 6.8738 2.28131 6.90417 2.26873C6.93454 2.25615 6.96709 2.24967 6.99996 2.24967C7.03283 2.24967 7.06538 2.25615 7.09575 2.26873C7.12612 2.28131 7.15371 2.29975 7.17696 2.32299C7.2002 2.34623 7.21864 2.37383 7.23122 2.4042C7.2438 2.43457 7.25027 2.46712 7.25027 2.49999C7.25027 2.53286 7.2438 2.56541 7.23122 2.59578C7.21864 2.62615 7.2002 2.65375 7.17696 2.67699L4.17696 5.67699C4.15374 5.70027 4.12615 5.71874 4.09578 5.73135C4.0654 5.74395 4.03284 5.75044 3.99996 5.75044C3.96707 5.75044 3.93451 5.74395 3.90414 5.73135C3.87377 5.71874 3.84618 5.70027 3.82296 5.67699L0.822959 2.67699C0.799677 2.65377 0.781206 2.62618 0.768602 2.59581C0.755999 2.56543 0.749512 2.53287 0.749512 2.49999C0.749512 2.46711 0.755999 2.43454 0.768602 2.40417C0.781206 2.3738 0.799677 2.34621 0.822959 2.32299Z" fill="currentColor" stroke="currentColor" stroke-width="0.7"/>
</svg>
