<svg width="14" height="14" viewBox="0 0 14 14" fill="currentColor" xmlns="http://www.w3.org/2000/svg" id="chevron-right-h6">
<path fill-rule="evenodd" clip-rule="evenodd" d="M4.06524 1.4403C4.10588 1.39956 4.15416 1.36723 4.20731 1.34518C4.26046 1.32312 4.31744 1.31177 4.37499 1.31177C4.43253 1.31177 4.48952 1.32312 4.54267 1.34518C4.59582 1.36723 4.6441 1.39956 4.68474 1.4403L9.93474 6.6903C9.97548 6.73094 10.0078 6.77922 10.0299 6.83237C10.0519 6.88552 10.0633 6.9425 10.0633 7.00005C10.0633 7.0576 10.0519 7.11458 10.0299 7.16773C10.0078 7.22088 9.97548 7.26916 9.93474 7.3098L4.68474 12.5598C4.60259 12.642 4.49117 12.6881 4.37499 12.6881C4.25881 12.6881 4.14739 12.642 4.06524 12.5598C3.98309 12.4776 3.93694 12.3662 3.93694 12.25C3.93694 12.1339 3.98309 12.0225 4.06524 11.9403L9.00636 7.00005L4.06524 2.0598C4.0245 2.01916 3.99217 1.97088 3.97011 1.91773C3.94806 1.86458 3.93671 1.8076 3.93671 1.75005C3.93671 1.6925 3.94806 1.63552 3.97011 1.58237C3.99217 1.52922 4.0245 1.48094 4.06524 1.4403V1.4403Z" fill="currentColor" stroke="currentColor"/>
</svg>
