<svg width="16" height="16" viewBox="0 0 16 16" fill="currentColor" xmlns="http://www.w3.org/2000/svg" id="chevron-right-h4">
<path fill-rule="evenodd" clip-rule="evenodd" d="M4.64601 1.64604C4.69245 1.59948 4.74763 1.56253 4.80837 1.53733C4.86912 1.51212 4.93424 1.49915 5.00001 1.49915C5.06578 1.49915 5.1309 1.51212 5.19164 1.53733C5.25239 1.56253 5.30756 1.59948 5.35401 1.64604L11.354 7.64604C11.4006 7.69248 11.4375 7.74766 11.4627 7.80841C11.4879 7.86915 11.5009 7.93427 11.5009 8.00004C11.5009 8.06581 11.4879 8.13093 11.4627 8.19167C11.4375 8.25242 11.4006 8.30759 11.354 8.35404L5.35401 14.354C5.26012 14.4479 5.13278 14.5007 5.00001 14.5007C4.86723 14.5007 4.7399 14.4479 4.64601 14.354C4.55212 14.2602 4.49938 14.1328 4.49938 14C4.49938 13.8673 4.55212 13.7399 4.64601 13.646L10.293 8.00004L4.64601 2.35404C4.59945 2.30759 4.5625 2.25242 4.5373 2.19167C4.51209 2.13093 4.49911 2.06581 4.49911 2.00004C4.49911 1.93427 4.51209 1.86915 4.5373 1.80841C4.5625 1.74766 4.59945 1.69249 4.64601 1.64604Z" fill="currentColor" stroke="currentColor"/>
</svg>
