<svg width="28" height="28" viewBox="0 0 28 28" fill="currentColor" xmlns="http://www.w3.org/2000/svg" id="phone">
<path d="M6.39459 2.324C6.29128 2.1911 6.16088 2.08171 6.01205 2.00309C5.86321 1.92447 5.69935 1.87841 5.53135 1.86799C5.36335 1.85756 5.19505 1.883 5.03764 1.94261C4.88022 2.00222 4.73729 2.09465 4.61834 2.21375L2.80884 4.025C1.96359 4.872 1.65209 6.07075 2.02134 7.1225C3.55389 11.4758 6.04686 15.4282 9.31534 18.6865C12.5737 21.9549 16.5261 24.4479 20.8793 25.9805C21.9311 26.3497 23.1298 26.0382 23.9768 25.193L25.7863 23.3835C25.9054 23.2645 25.9979 23.1216 26.0575 22.9642C26.1171 22.8068 26.1425 22.6385 26.1321 22.4705C26.1217 22.3025 26.0756 22.1386 25.997 21.9898C25.9184 21.841 25.809 21.7106 25.6761 21.6072L21.6388 18.4677C21.4969 18.3576 21.3317 18.2812 21.1559 18.2442C20.9801 18.2072 20.7981 18.2107 20.6238 18.2542L16.7913 19.2115C16.2798 19.3394 15.7438 19.3326 15.2357 19.1918C14.7275 19.051 14.2645 18.7811 13.8916 18.4082L9.59359 14.1085C9.22044 13.7358 8.95016 13.2728 8.80909 12.7647C8.66802 12.2565 8.66095 11.7205 8.78859 11.2087L9.74759 7.37625C9.79118 7.20194 9.79461 7.02001 9.75763 6.84418C9.72064 6.66836 9.64421 6.50322 9.53409 6.36125L6.39459 2.324ZM3.29709 0.894247C3.60333 0.587909 3.97124 0.350226 4.37639 0.19698C4.78153 0.0437336 5.21464 -0.0215682 5.64696 0.00541026C6.07928 0.0323888 6.50091 0.15103 6.88386 0.353457C7.26681 0.555883 7.60231 0.837463 7.86809 1.1795L11.0076 5.215C11.5833 5.95525 11.7863 6.9195 11.5588 7.8295L10.6016 11.662C10.5521 11.8605 10.5548 12.0684 10.6094 12.2656C10.6639 12.4628 10.7686 12.6425 10.9131 12.7872L15.2128 17.087C15.3578 17.2318 15.5378 17.3366 15.7353 17.3912C15.9328 17.4458 16.1411 17.4483 16.3398 17.3985L20.1706 16.4412C20.6197 16.329 21.0884 16.3202 21.5413 16.4157C21.9943 16.5112 22.4196 16.7085 22.7851 16.9925L26.8206 20.132C28.2713 21.2607 28.4043 23.4045 27.1058 24.7012L25.2963 26.5107C24.0013 27.8057 22.0658 28.3745 20.2616 27.7392C15.6437 26.1144 11.4508 23.4707 7.99409 20.0042C4.52785 16.548 1.88416 12.3558 0.259092 7.7385C-0.374408 5.936 0.194342 3.99875 1.48934 2.70375L3.29884 0.894247H3.29709Z" fill="currentColor"/>
<path fill-rule="evenodd" clip-rule="evenodd" d="M21.875 1.75C22.1071 1.75 22.3296 1.84219 22.4937 2.00628C22.6578 2.17038 22.75 2.39294 22.75 2.625V5.25H25.375C25.6071 5.25 25.8296 5.34219 25.9937 5.50628C26.1578 5.67038 26.25 5.89294 26.25 6.125C26.25 6.35706 26.1578 6.57962 25.9937 6.74372C25.8296 6.90781 25.6071 7 25.375 7H22.75V9.625C22.75 9.85706 22.6578 10.0796 22.4937 10.2437C22.3296 10.4078 22.1071 10.5 21.875 10.5C21.6429 10.5 21.4204 10.4078 21.2563 10.2437C21.0922 10.0796 21 9.85706 21 9.625V7H18.375C18.1429 7 17.9204 6.90781 17.7563 6.74372C17.5922 6.57962 17.5 6.35706 17.5 6.125C17.5 5.89294 17.5922 5.67038 17.7563 5.50628C17.9204 5.34219 18.1429 5.25 18.375 5.25H21V2.625C21 2.39294 21.0922 2.17038 21.2563 2.00628C21.4204 1.84219 21.6429 1.75 21.875 1.75Z" fill="currentColor"/>
</svg>
